<svg xmlns="http://www.w3.org/2000/svg" width="26.553" height="20.043" viewBox="0 0 26.553 20.043">
  <path id="group_add_FILL0_wght700_GRAD200_opsz24" d="M-49.149-895.211a6.309,6.309,0,0,0,1.493-2.288,7.427,7.427,0,0,0,.465-2.59,6.916,6.916,0,0,0-.538-2.643,6.485,6.485,0,0,0-1.468-2.219,4.731,4.731,0,0,1,3.132,1.757,5.024,5.024,0,0,1,1.077,3.113,4.991,4.991,0,0,1-1.126,3.181A4.523,4.523,0,0,1-49.149-895.211Zm5.947,10.254v-3.989a5.87,5.87,0,0,0-.4-2.249,5.457,5.457,0,0,0-1.211-1.789,6.211,6.211,0,0,1,3.022,1.383,3.373,3.373,0,0,1,1.187,2.655v3.989Zm2.521-9.2v-2.056h-2.056v-2.2h2.056v-2.056h2.2v2.056h2.031v2.2h-2.031v2.056Zm-13.386-.979a4.766,4.766,0,0,1-3.5-1.444,4.78,4.78,0,0,1-1.444-3.512,4.7,4.7,0,0,1,1.444-3.487A4.822,4.822,0,0,1-54.055-905a4.745,4.745,0,0,1,3.487,1.417,4.753,4.753,0,0,1,1.419,3.5,4.812,4.812,0,0,1-1.417,3.5A4.712,4.712,0,0,1-54.068-895.138ZM-63-884.957v-3.891a3.974,3.974,0,0,1,.555-2.069,3.545,3.545,0,0,1,1.525-1.407,15.4,15.4,0,0,1,3.363-1.248,14.753,14.753,0,0,1,3.475-.416,14.938,14.938,0,0,1,3.539.416,15.193,15.193,0,0,1,3.3,1.224,3.707,3.707,0,0,1,1.539,1.4,3.914,3.914,0,0,1,.565,2.1v3.892Zm8.932-13.509a1.516,1.516,0,0,0,1.127-.476,1.572,1.572,0,0,0,.465-1.138,1.568,1.568,0,0,0-.469-1.139,1.519,1.519,0,0,0-1.121-.477,1.546,1.546,0,0,0-1.139.482,1.559,1.559,0,0,0-.477,1.133,1.554,1.554,0,0,0,.476,1.139A1.553,1.553,0,0,0-54.068-898.466ZM-59.7-888.285h11.233v-.44a.8.8,0,0,0-.119-.436.68.68,0,0,0-.321-.274,12.267,12.267,0,0,0-2.508-.905,11.227,11.227,0,0,0-2.661-.318,11.77,11.77,0,0,0-2.7.318,10.558,10.558,0,0,0-2.478.905.68.68,0,0,0-.321.274.8.8,0,0,0-.119.436ZM-54.068-900.081ZM-54.068-888.285Z" transform="translate(63 905)"/>
</svg>
