<svg xmlns="http://www.w3.org/2000/svg" width="18.092" height="20" viewBox="0 0 18.092 20">
  <path id="calendar" d="M103.311-879.218a2.44,2.44,0,0,1-1.793-.736,2.44,2.44,0,0,1-.736-1.793v-13.035a2.44,2.44,0,0,1,.736-1.793,2.44,2.44,0,0,1,1.793-.736h.792v-1.908h2.218v1.908h7.013v-1.908h2.218v1.908h.792a2.44,2.44,0,0,1,1.793.736,2.44,2.44,0,0,1,.736,1.793v13.035a2.44,2.44,0,0,1-.736,1.793,2.44,2.44,0,0,1-1.793.736Zm0-2.529h13.035v-9.38H103.311Zm0-11.288h13.035v-1.747H103.311Zm0,0v0Zm6.517,5.833a1.028,1.028,0,0,1-.757-.305,1.028,1.028,0,0,1-.305-.757,1.028,1.028,0,0,1,.305-.757,1.028,1.028,0,0,1,.757-.305,1.028,1.028,0,0,1,.757.305,1.028,1.028,0,0,1,.305.757,1.028,1.028,0,0,1-.305.757A1.028,1.028,0,0,1,109.828-887.2Zm-3.817,0a1.028,1.028,0,0,1-.757-.305,1.028,1.028,0,0,1-.305-.757,1.028,1.028,0,0,1,.305-.757,1.028,1.028,0,0,1,.757-.305,1.028,1.028,0,0,1,.757.305,1.028,1.028,0,0,1,.305.757,1.028,1.028,0,0,1-.305.757A1.028,1.028,0,0,1,106.011-887.2Zm7.633,0a1.037,1.037,0,0,1-.747-.305,1.012,1.012,0,0,1-.315-.757,1.012,1.012,0,0,1,.315-.757,1.045,1.045,0,0,1,.754-.305,1.022,1.022,0,0,1,.747.305,1.023,1.023,0,0,1,.308.757,1.028,1.028,0,0,1-.305.757A1.028,1.028,0,0,1,113.644-887.2Zm-3.817,3.817a1.012,1.012,0,0,1-.757-.315,1.045,1.045,0,0,1-.305-.754,1.022,1.022,0,0,1,.305-.747,1.023,1.023,0,0,1,.757-.308,1.028,1.028,0,0,1,.757.305,1.028,1.028,0,0,1,.305.757,1.037,1.037,0,0,1-.305.747A1.012,1.012,0,0,1,109.828-883.385Zm-3.817,0a1.012,1.012,0,0,1-.757-.315,1.045,1.045,0,0,1-.305-.754,1.022,1.022,0,0,1,.305-.747,1.023,1.023,0,0,1,.757-.308,1.028,1.028,0,0,1,.757.305,1.028,1.028,0,0,1,.305.757,1.037,1.037,0,0,1-.305.747A1.012,1.012,0,0,1,106.011-883.385Zm7.633,0a1.021,1.021,0,0,1-.747-.315,1.029,1.029,0,0,1-.315-.754,1.007,1.007,0,0,1,.315-.747,1.04,1.04,0,0,1,.754-.308,1.022,1.022,0,0,1,.747.305,1.023,1.023,0,0,1,.308.757,1.037,1.037,0,0,1-.305.747A1.012,1.012,0,0,1,113.644-883.385Z" transform="translate(-100.782 899.218)"/>
</svg>
